<svg xmlns="http://www.w3.org/2000/svg" xmlns:xlink="http://www.w3.org/1999/xlink" width="500" zoomAndPan="magnify" viewBox="0 0 375 374.999991" height="500" preserveAspectRatio="xMidYMid meet" version="1.0"><defs><clipPath id="bb32f4308a"><path d="M 63.148438 106.699219 L 279.898438 106.699219 L 279.898438 235 L 63.148438 235 Z M 63.148438 106.699219 " clip-rule="nonzero"/></clipPath></defs><g clip-path="url(#bb32f4308a)"><path fill="#0097b2" d="M 279.132812 228.902344 C 272.535156 236.519531 260.859375 236.9375 253.730469 229.808594 L 213.789062 189.871094 L 226.816406 176.84375 C 227.476562 177.339844 228.121094 177.886719 228.726562 178.492188 Z M 253.234375 106.699219 L 205.082031 154.851562 L 157.367188 107.140625 L 63.207031 107.140625 C 63.207031 112.277344 65.289062 116.929688 68.660156 120.292969 C 72.03125 123.660156 76.675781 125.746094 81.816406 125.746094 L 149.65625 125.746094 L 191.921875 168.007812 L 149.570312 210.359375 L 63.207031 210.359375 C 63.207031 220.632812 71.539062 228.964844 81.816406 228.964844 L 157.28125 228.964844 L 205.078125 181.160156 L 279.542969 106.699219 Z M 81.816406 177.3125 L 150.414062 177.3125 C 150.414062 167.035156 142.082031 158.707031 131.808594 158.707031 L 63.207031 158.707031 C 63.207031 168.980469 71.539062 177.3125 81.816406 177.3125 Z M 81.816406 177.3125 " fill-opacity="1" fill-rule="nonzero"/></g></svg>